<?xml version="1.0" encoding="UTF-8"?><svg id="a" xmlns="http://www.w3.org/2000/svg" viewBox="0 0 1269.41 580.25" fill="currentColor"><path d="M993.95,136v320.84c0,10.9,10.36,19.73,23.15,19.73h0c12.79,0,23.15-8.83,23.15-19.73v-3.83l.13-1.34V127.83c19.72-6.98,115.47-13.58,115.47-13.58v320.06c0,75.41-55.3,136.54-123.51,136.54h-31.39c-68.22,0-123.52-61.13-123.52-136.54V163.48s77.72-22.99,116.52-27.48h0Z" fill="#fff"/><path d="M322.97,353.27v216.77h237.17v-108.38h-120.36v-135.05h87.6v-56.34s-177.18,67.01-204.41,83Z" fill="#fff"/><path d="M324.94,302.63s149.17-55.97,202.05-70.84v-3.8h-88v-108.51h115.62V10.22h-229.67v292.41Z" fill="#fff"/><path d="M8.13,527.25s159.75-111.95,259.52-148.45l31.95,191.86h-114.07l-11.21-111.82h-46.8l-12.33,111.82H0l8.13-43.41Z" fill="#fff"/><path d="M90.11,10.22h118.69l52.12,319.36c-124.72,47.04-237.94,121.41-237.94,121.41L90.11,10.22ZM132.99,362.25h32.16l-16.08-174.73-16.08,174.73Z" fill="#fff"/><path d="M687.47,397.86l-105.14,21.5v20.61c0,77.48,52.27,140.28,116.76,140.28h29.71c64.48,0,116.76-62.8,116.76-140.28v-33.4s-.64-89.2-63.84-141.91c0,0-65.9-57.44-65.9-61.83l-111.52,38.19-1.18.49v.71c7.05,28.22,92.58,103.73,92.58,103.73,41.44,34.09,39.05,75.27,39.05,75.27,2.1,42.86-5.96,55.36-5.96,55.36-4.53,8.18-9.33,9.55-11.79,9.65l-5.38-.06c-5.71-.69-20.08-8.45-21.54-68.56l-.35-20.29-2.27.57v-.03Z" fill="#fff"/><path d="M742.15,165.6l97.25-24.68c-1.6-32.2-9.35-60.55-20.73-79.75l-.52-.86C799.16,24.58,759.61,0,713.9,0h-5.68c-45.22,0-84.42,24.06-103.64,59.18l-.66,1.15c-13.12,21.61-21.55,55.26-21.56,93.06,0,21.08,2.61,40.87,7.2,58,0,0,83.56-27.42,105.11-33.51l3.04-1.09-.7-1.19c-3.91-9.08-6.39-22.61-6.39-37.73,0-10.25,1.14-19.78,3.09-27.68l.23-.57c2.65-8.67,9-14.78,16.43-14.78,7.91,0,14.62,6.93,16.91,16.52l.13.23c5.06,14.57,6.89,34.28,4.4,55.62l10.34-1.6h0Z" fill="#fff"/><path d="M876.06,137.42V13.12h117.36v102.54s-114.22,19.68-117.36,21.76Z" fill="#fff"/><path d="M1040.41,111.26V18.91h115.43v84.95s-110.61,5.56-115.43,7.41h0Z" fill="#fff"/><path d="M1156.69,101.73c8.38.09,42.53.95,42.53.95,35.34,0,62.02,10.66,68.64,30.57,8.26,24.83-17.08,56.82-59.97,80.54l-54.02,30.58.35-31.11,39.76-17.75c41.6-18.22,67.82-41.85,63.21-60.36-5.14-20.64-46.99-28.51-99.88-21.04l-1.45.13v-12.53h.84v.02Z" fill="#fff"/></svg>