<svg style="position: absolute; width: 0; height: 0; overflow: hidden;" version="1.1" xmlns="http://www.w3.org/2000/svg" xmlns:xlink="http://www.w3.org/1999/xlink">
<defs>
<symbol id="icon-marker" viewBox="0 0 32 32">
<title>marker</title>
<path d="M16 0c-6.39 0-11.589 5.199-11.589 11.589 0 7.93 10.371 19.573 10.813 20.065 0.415 0.462 1.139 0.461 1.553 0 0.442-0.492 10.813-12.134 10.813-20.065-0-6.39-5.199-11.589-11.589-11.589zM16 29.358c-3.49-4.146-9.502-12.326-9.502-17.769 0-5.24 4.263-9.502 9.502-9.502s9.502 4.263 9.502 9.502c-0 5.443-6.011 13.621-9.502 17.769z"></path>
<path d="M16 5.758c-3.215 0-5.831 2.616-5.831 5.831s2.616 5.831 5.831 5.831 5.831-2.616 5.831-5.831-2.616-5.831-5.831-5.831zM16 15.333c-2.064 0-3.744-1.679-3.744-3.744s1.679-3.744 3.744-3.744 3.744 1.679 3.744 3.744-1.679 3.744-3.744 3.744z"></path>
</symbol>
<symbol id="icon-call" viewBox="0 0 32 32">
<title>call</title>
<path d="M31.16 24.686l-6.477-4.319c-0.822-0.544-1.924-0.365-2.531 0.411l-1.887 2.426c-0.242 0.32-0.683 0.412-1.034 0.218l-0.359-0.198c-1.19-0.648-2.67-1.456-5.652-4.439s-3.791-4.465-4.44-5.652l-0.197-0.359c-0.198-0.351-0.107-0.793 0.213-1.038l2.424-1.886c0.776-0.608 0.955-1.709 0.412-2.531l-4.319-6.477c-0.557-0.837-1.673-1.089-2.535-0.571l-2.708 1.627c-0.851 0.5-1.475 1.311-1.742 2.261-0.975 3.554-0.242 9.687 8.793 18.722 7.187 7.186 12.537 9.119 16.214 9.119 0.846 0.004 1.689-0.106 2.506-0.327 0.951-0.266 1.761-0.891 2.261-1.742l1.629-2.707c0.519-0.862 0.268-1.979-0.57-2.536zM30.812 26.675l-1.625 2.708c-0.359 0.614-0.942 1.066-1.626 1.261-3.281 0.901-9.012 0.155-17.685-8.519s-9.419-14.404-8.519-17.685c0.195-0.685 0.647-1.269 1.262-1.629l2.708-1.625c0.374-0.225 0.859-0.116 1.1 0.247l4.316 6.476c0.236 0.357 0.158 0.835-0.178 1.099l-2.425 1.886c-0.738 0.564-0.949 1.585-0.494 2.395l0.193 0.35c0.682 1.25 1.529 2.805 4.622 5.898s4.648 3.94 5.897 4.622l0.35 0.193c0.81 0.454 1.831 0.244 2.395-0.494l1.886-2.425c0.264-0.336 0.742-0.414 1.099-0.178l6.476 4.319c0.364 0.241 0.473 0.726 0.247 1.1z"></path>
<path d="M18.132 5.336c5.004 0.006 9.060 4.061 9.065 9.065 0 0.295 0.239 0.533 0.533 0.533s0.533-0.239 0.533-0.533c-0.006-5.593-4.539-10.126-10.132-10.132-0.295 0-0.533 0.239-0.533 0.533s0.239 0.533 0.533 0.533z"></path>
<path d="M18.132 8.536c3.238 0.004 5.862 2.628 5.866 5.866 0 0.295 0.239 0.533 0.533 0.533s0.533-0.239 0.533-0.533c-0.004-3.827-3.106-6.928-6.932-6.932-0.295 0-0.533 0.239-0.533 0.533s0.239 0.533 0.533 0.533z"></path>
<path d="M18.132 11.735c1.472 0.002 2.664 1.194 2.666 2.666 0 0.295 0.239 0.533 0.533 0.533s0.533-0.239 0.533-0.533c-0.002-2.061-1.672-3.73-3.733-3.733-0.295 0-0.533 0.239-0.533 0.533s0.239 0.533 0.533 0.533z"></path>
</symbol>
<symbol id="icon-email" viewBox="0 0 32 32">
<title>email</title>
<path d="M31.198 10.671l-9.869-9.869c-1.068-1.068-2.806-1.068-3.875 0l-15.402 15.402c-0.534 0.534-0.801 1.236-0.801 1.937s0.267 1.403 0.801 1.937l2.476 2.476-2.719 2.719c-0.122 0.122-0.183 0.282-0.183 0.442s0.061 0.32 0.183 0.442c0.244 0.244 0.64 0.244 0.884 0l2.719-2.719 1.132 1.133-6.362 6.362c-0.122 0.122-0.183 0.282-0.183 0.442s0.061 0.32 0.183 0.442c0.244 0.244 0.64 0.244 0.884 0l6.362-6.362 4.493 4.493c1.068 1.068 2.806 1.068 3.874 0l15.402-15.402c0.517-0.517 0.802-1.205 0.802-1.937s-0.285-1.42-0.802-1.937zM13.405 29.427c-0.219-0.070-0.426-0.19-0.599-0.364l-9.869-9.869c-0.389-0.39-0.516-0.942-0.384-1.44h10.852v11.673zM11.145 16.504l1.853-1.853c0.244-0.244 0.244-0.64 0-0.884s-0.64-0.244-0.884 0l-2.737 2.737h-1.821l5.65-5.65c0.244-0.244 0.244-0.64 0-0.884s-0.64-0.244-0.884 0l-6.534 6.534h-2.269l14.236-14.236v12.746c0 0.821-0.668 1.49-1.49 1.49h-5.12zM30.314 13.661l-15.402 15.402c-0.079 0.079-0.166 0.147-0.257 0.205v-11.514h1.611c1.511 0 2.74-1.229 2.74-2.74v-1.611h7.164l-3.617 3.617c-0.122 0.122-0.183 0.282-0.183 0.442s0.061 0.32 0.183 0.442c0.244 0.244 0.64 0.244 0.884 0l4.5-4.5c0-0 0-0 0-0h2.583c-0.058 0.092-0.127 0.178-0.206 0.257zM19.005 12.154v-10.852c0.497-0.133 1.050-0.006 1.44 0.384l9.869 9.869c0.171 0.171 0.295 0.376 0.366 0.599h-11.675z"></path>
<path d="M14.737 8.441c-0.116-0.117-0.277-0.183-0.442-0.183s-0.326 0.066-0.442 0.183c-0.116 0.116-0.183 0.277-0.183 0.442s0.067 0.326 0.183 0.442 0.277 0.183 0.442 0.183c0.164 0 0.326-0.067 0.442-0.183s0.183-0.277 0.183-0.442c0-0.165-0.067-0.326-0.183-0.442z"></path>
<path d="M1.069 26.897c-0.116-0.116-0.278-0.183-0.442-0.183s-0.326 0.067-0.442 0.183c-0.116 0.116-0.183 0.277-0.183 0.442s0.067 0.326 0.183 0.442c0.116 0.116 0.278 0.183 0.442 0.183s0.326-0.067 0.442-0.183c0.117-0.116 0.183-0.277 0.183-0.442s-0.066-0.326-0.183-0.442z"></path>
<path d="M7.939 28.094c-0.244-0.244-0.64-0.244-0.884 0l-2.838 2.838c-0.122 0.122-0.183 0.282-0.183 0.442s0.061 0.32 0.183 0.442c0.244 0.244 0.64 0.244 0.884 0l2.838-2.838c0.244-0.244 0.244-0.64 0-0.884z"></path>
</symbol>
<symbol id="icon-search" viewBox="0 0 32 32">
<title>search</title>
<path d="M20.64 22.912c-2.144 1.678-4.88 2.692-7.852 2.692-7.069 0-12.8-5.731-12.8-12.8s5.731-12.8 12.8-12.8c7.069 0 12.8 5.731 12.8 12.8 0 2.972-1.013 5.708-2.713 7.881l0.021-0.028 8.56 8.528-2.272 2.272-8.528-8.544zM12.8 22.4c5.302 0 9.6-4.298 9.6-9.6s-4.298-9.6-9.6-9.6v0c-5.302 0-9.6 4.298-9.6 9.6s4.298 9.6 9.6 9.6v0z"></path>
</symbol>
<symbol id="icon-close" viewBox="0 0 32 32">
<title>close</title>
<path d="M16 13.738l-11.314-11.314-2.262 2.262 11.314 11.314-11.314 11.314 2.262 2.262 11.314-11.314 11.314 11.314 2.262-2.262-11.314-11.314 11.314-11.314-2.262-2.262-11.314 11.314z"></path>
</symbol>
<symbol id="icon-pinpoint" viewBox="0 0 32 32">
<title>pinpoint</title>
<path d="M26.501 7.964c-0.114-0.427-0.345-0.882-0.516-1.28-2.048-4.921-6.522-6.684-10.134-6.684-4.836 0-10.162 3.243-10.873 9.927v1.366c0 0.057 0.020 0.569 0.048 0.825 0.399 3.185 2.912 6.571 4.789 9.756 2.020 3.413 4.115 6.77 6.192 10.126 1.28-2.19 2.556-4.409 3.807-6.542 0.341-0.626 0.737-1.252 1.078-1.849 0.227-0.398 0.662-0.796 0.861-1.166 2.020-3.698 5.27-7.424 5.27-11.093v-1.507c0-0.398-0.493-1.792-0.521-1.877zM15.94 14.82c-1.422 0-2.978-0.711-3.746-2.674-0.114-0.312-0.105-0.939-0.105-0.996v-0.882c0-2.502 2.125-3.64 3.973-3.64 2.276 0 4.036 1.821 4.036 4.096s-1.883 4.096-4.158 4.096z"></path>
</symbol>
<symbol id="icon-envelope" viewBox="0 0 32 32">
<title>envelope</title>
<path d="M16 20.571l-3.959-3.465-11.319 9.703c0.411 0.382 0.967 0.619 1.579 0.619h27.397c0.61 0 1.163-0.238 1.573-0.619l-11.312-9.703-3.959 3.465z"></path>
<path d="M31.278 5.191c-0.411-0.384-0.965-0.619-1.579-0.619h-27.397c-0.61 0-1.163 0.238-1.575 0.624l15.273 13.090 15.278-13.095z"></path>
<path d="M0 6.578v18.99l11.047-9.387z"></path>
<path d="M20.953 16.181l11.047 9.387v-18.997z"></path>
</symbol>
<symbol id="icon-phone" viewBox="0 0 22 28">
<title>phone</title>
<path d="M22 19.375c0 0.562-0.25 1.656-0.484 2.172-0.328 0.766-1.203 1.266-1.906 1.656-0.922 0.5-1.859 0.797-2.906 0.797-1.453 0-2.766-0.594-4.094-1.078-0.953-0.344-1.875-0.766-2.734-1.297-2.656-1.641-5.859-4.844-7.5-7.5-0.531-0.859-0.953-1.781-1.297-2.734-0.484-1.328-1.078-2.641-1.078-4.094 0-1.047 0.297-1.984 0.797-2.906 0.391-0.703 0.891-1.578 1.656-1.906 0.516-0.234 1.609-0.484 2.172-0.484 0.109 0 0.219 0 0.328 0.047 0.328 0.109 0.672 0.875 0.828 1.188 0.5 0.891 0.984 1.797 1.5 2.672 0.25 0.406 0.719 0.906 0.719 1.391 0 0.953-2.828 2.344-2.828 3.187 0 0.422 0.391 0.969 0.609 1.344 1.578 2.844 3.547 4.813 6.391 6.391 0.375 0.219 0.922 0.609 1.344 0.609 0.844 0 2.234-2.828 3.187-2.828 0.484 0 0.984 0.469 1.391 0.719 0.875 0.516 1.781 1 2.672 1.5 0.313 0.156 1.078 0.5 1.188 0.828 0.047 0.109 0.047 0.219 0.047 0.328z"></path>
</symbol>
<symbol id="icon-instagram" viewBox="0 0 24 28">
<title>instagram</title>
<path d="M16 14c0-2.203-1.797-4-4-4s-4 1.797-4 4 1.797 4 4 4 4-1.797 4-4zM18.156 14c0 3.406-2.75 6.156-6.156 6.156s-6.156-2.75-6.156-6.156 2.75-6.156 6.156-6.156 6.156 2.75 6.156 6.156zM19.844 7.594c0 0.797-0.641 1.437-1.437 1.437s-1.437-0.641-1.437-1.437 0.641-1.437 1.437-1.437 1.437 0.641 1.437 1.437zM12 4.156c-1.75 0-5.5-0.141-7.078 0.484-0.547 0.219-0.953 0.484-1.375 0.906s-0.688 0.828-0.906 1.375c-0.625 1.578-0.484 5.328-0.484 7.078s-0.141 5.5 0.484 7.078c0.219 0.547 0.484 0.953 0.906 1.375s0.828 0.688 1.375 0.906c1.578 0.625 5.328 0.484 7.078 0.484s5.5 0.141 7.078-0.484c0.547-0.219 0.953-0.484 1.375-0.906s0.688-0.828 0.906-1.375c0.625-1.578 0.484-5.328 0.484-7.078s0.141-5.5-0.484-7.078c-0.219-0.547-0.484-0.953-0.906-1.375s-0.828-0.688-1.375-0.906c-1.578-0.625-5.328-0.484-7.078-0.484zM24 14c0 1.656 0.016 3.297-0.078 4.953-0.094 1.922-0.531 3.625-1.937 5.031s-3.109 1.844-5.031 1.937c-1.656 0.094-3.297 0.078-4.953 0.078s-3.297 0.016-4.953-0.078c-1.922-0.094-3.625-0.531-5.031-1.937s-1.844-3.109-1.937-5.031c-0.094-1.656-0.078-3.297-0.078-4.953s-0.016-3.297 0.078-4.953c0.094-1.922 0.531-3.625 1.937-5.031s3.109-1.844 5.031-1.937c1.656-0.094 3.297-0.078 4.953-0.078s3.297-0.016 4.953 0.078c1.922 0.094 3.625 0.531 5.031 1.937s1.844 3.109 1.937 5.031c0.094 1.656 0.078 3.297 0.078 4.953z"></path>
</symbol>
<symbol id="icon-feed" viewBox="0 0 22 28">
<title>feed</title>
<path d="M6 21c0 1.656-1.344 3-3 3s-3-1.344-3-3 1.344-3 3-3 3 1.344 3 3zM14 22.922c0.016 0.281-0.078 0.547-0.266 0.75-0.187 0.219-0.453 0.328-0.734 0.328h-2.109c-0.516 0-0.938-0.391-0.984-0.906-0.453-4.766-4.234-8.547-9-9-0.516-0.047-0.906-0.469-0.906-0.984v-2.109c0-0.281 0.109-0.547 0.328-0.734 0.172-0.172 0.422-0.266 0.672-0.266h0.078c3.328 0.266 6.469 1.719 8.828 4.094 2.375 2.359 3.828 5.5 4.094 8.828zM22 22.953c0.016 0.266-0.078 0.531-0.281 0.734-0.187 0.203-0.438 0.313-0.719 0.313h-2.234c-0.531 0-0.969-0.406-1-0.938-0.516-9.078-7.75-16.312-16.828-16.844-0.531-0.031-0.938-0.469-0.938-0.984v-2.234c0-0.281 0.109-0.531 0.313-0.719 0.187-0.187 0.438-0.281 0.688-0.281h0.047c5.469 0.281 10.609 2.578 14.484 6.469 3.891 3.875 6.188 9.016 6.469 14.484z"></path>
</symbol>
<symbol id="icon-linkedin" viewBox="0 0 24 28">
<title>linkedin</title>
<path d="M5.453 9.766v15.484h-5.156v-15.484h5.156zM5.781 4.984c0.016 1.484-1.109 2.672-2.906 2.672v0h-0.031c-1.734 0-2.844-1.188-2.844-2.672 0-1.516 1.156-2.672 2.906-2.672 1.766 0 2.859 1.156 2.875 2.672zM24 16.375v8.875h-5.141v-8.281c0-2.078-0.75-3.5-2.609-3.5-1.422 0-2.266 0.953-2.641 1.875-0.125 0.344-0.172 0.797-0.172 1.266v8.641h-5.141c0.063-14.031 0-15.484 0-15.484h5.141v2.25h-0.031c0.672-1.062 1.891-2.609 4.672-2.609 3.391 0 5.922 2.219 5.922 6.969z"></path>
</symbol>
<symbol id="icon-houzz" viewBox="0 0 16 28">
<title>houzz</title>
<path d="M8 18.609l8-4.609v9.234l-8 4.625v-9.25zM0 14v9.234l8-4.625-8-4.609zM8 0.141v9.234l-8 4.625v-9.234zM8 9.375l8-4.609v9.234z"></path>
</symbol>
<symbol id="icon-pinterest" viewBox="0 0 20 28">
<title>pinterest</title>
<path d="M0 9.328c0-5.766 5.281-9.328 10.625-9.328 4.906 0 9.375 3.375 9.375 8.547 0 4.859-2.484 10.25-8.016 10.25-1.313 0-2.969-0.656-3.609-1.875-1.188 4.703-1.094 5.406-3.719 9l-0.219 0.078-0.141-0.156c-0.094-0.984-0.234-1.953-0.234-2.938 0-3.187 1.469-7.797 2.188-10.891-0.391-0.797-0.5-1.766-0.5-2.641 0-1.578 1.094-3.578 2.875-3.578 1.313 0 2.016 1 2.016 2.234 0 2.031-1.375 3.938-1.375 5.906 0 1.344 1.109 2.281 2.406 2.281 3.594 0 4.703-5.187 4.703-7.953 0-3.703-2.625-5.719-6.172-5.719-4.125 0-7.313 2.969-7.313 7.156 0 2.016 1.234 3.047 1.234 3.531 0 0.406-0.297 1.844-0.812 1.844-0.078 0-0.187-0.031-0.266-0.047-2.234-0.672-3.047-3.656-3.047-5.703z"></path>
</symbol>
<symbol id="icon-youtube" viewBox="0 0 24 28">
<title>youtube</title>
<path d="M15.172 19.437v3.297c0 0.703-0.203 1.047-0.609 1.047-0.234 0-0.469-0.109-0.703-0.344v-4.703c0.234-0.234 0.469-0.344 0.703-0.344 0.406 0 0.609 0.359 0.609 1.047zM20.453 19.453v0.719h-1.406v-0.719c0-0.703 0.234-1.062 0.703-1.062s0.703 0.359 0.703 1.062zM5.359 16.047h1.672v-1.469h-4.875v1.469h1.641v8.891h1.563v-8.891zM9.859 24.938h1.391v-7.719h-1.391v5.906c-0.313 0.438-0.609 0.656-0.891 0.656-0.187 0-0.297-0.109-0.328-0.328-0.016-0.047-0.016-0.219-0.016-0.547v-5.688h-1.391v6.109c0 0.547 0.047 0.906 0.125 1.141 0.125 0.391 0.453 0.578 0.906 0.578 0.5 0 1.031-0.313 1.594-0.953v0.844zM16.562 22.625v-3.078c0-0.719-0.031-1.234-0.141-1.547-0.172-0.578-0.562-0.875-1.109-0.875-0.516 0-1 0.281-1.453 0.844v-3.391h-1.391v10.359h1.391v-0.75c0.469 0.578 0.953 0.859 1.453 0.859 0.547 0 0.938-0.297 1.109-0.859 0.109-0.328 0.141-0.844 0.141-1.563zM21.844 22.469v-0.203h-1.422c0 0.562-0.016 0.875-0.031 0.953-0.078 0.375-0.281 0.562-0.625 0.562-0.484 0-0.719-0.359-0.719-1.078v-1.359h2.797v-1.609c0-0.828-0.141-1.422-0.422-1.813-0.406-0.531-0.953-0.797-1.656-0.797-0.719 0-1.266 0.266-1.672 0.797-0.297 0.391-0.438 0.984-0.438 1.813v2.703c0 0.828 0.156 1.437 0.453 1.813 0.406 0.531 0.953 0.797 1.687 0.797s1.313-0.281 1.687-0.828c0.172-0.25 0.297-0.531 0.328-0.844 0.031-0.141 0.031-0.453 0.031-0.906zM12.344 8.203v-3.281c0-0.719-0.203-1.078-0.672-1.078-0.453 0-0.672 0.359-0.672 1.078v3.281c0 0.719 0.219 1.094 0.672 1.094 0.469 0 0.672-0.375 0.672-1.094zM23.578 19.938c0 1.797-0.016 3.719-0.406 5.469-0.297 1.234-1.297 2.141-2.5 2.266-2.875 0.328-5.781 0.328-8.672 0.328s-5.797 0-8.672-0.328c-1.203-0.125-2.219-1.031-2.5-2.266-0.406-1.75-0.406-3.672-0.406-5.469v0c0-1.813 0.016-3.719 0.406-5.469 0.297-1.234 1.297-2.141 2.516-2.281 2.859-0.313 5.766-0.313 8.656-0.313s5.797 0 8.672 0.313c1.203 0.141 2.219 1.047 2.5 2.281 0.406 1.75 0.406 3.656 0.406 5.469zM7.984 0h1.594l-1.891 6.234v4.234h-1.563v-4.234c-0.141-0.766-0.453-1.859-0.953-3.313-0.344-0.969-0.688-1.953-1.016-2.922h1.656l1.109 4.109zM13.766 5.203v2.734c0 0.828-0.141 1.453-0.438 1.844-0.391 0.531-0.938 0.797-1.656 0.797-0.703 0-1.25-0.266-1.641-0.797-0.297-0.406-0.438-1.016-0.438-1.844v-2.734c0-0.828 0.141-1.437 0.438-1.828 0.391-0.531 0.938-0.797 1.641-0.797 0.719 0 1.266 0.266 1.656 0.797 0.297 0.391 0.438 1 0.438 1.828zM19 2.672v7.797h-1.422v-0.859c-0.562 0.656-1.094 0.969-1.609 0.969-0.453 0-0.781-0.187-0.922-0.578-0.078-0.234-0.125-0.609-0.125-1.172v-6.156h1.422v5.734c0 0.328 0 0.516 0.016 0.547 0.031 0.219 0.141 0.344 0.328 0.344 0.281 0 0.578-0.219 0.891-0.672v-5.953h1.422z"></path>
</symbol>
<symbol id="icon-google-plus" viewBox="0 0 36 28">
<title>google-plus</title>
<path d="M22.453 14.266c0 6.547-4.391 11.188-11 11.188-6.328 0-11.453-5.125-11.453-11.453s5.125-11.453 11.453-11.453c3.094 0 5.672 1.125 7.672 3l-3.109 2.984c-0.844-0.812-2.328-1.766-4.562-1.766-3.906 0-7.094 3.234-7.094 7.234s3.187 7.234 7.094 7.234c4.531 0 6.234-3.266 6.5-4.937h-6.5v-3.938h10.813c0.109 0.578 0.187 1.156 0.187 1.906zM36 12.359v3.281h-3.266v3.266h-3.281v-3.266h-3.266v-3.281h3.266v-3.266h3.281v3.266h3.266z"></path>
</symbol>
<symbol id="icon-twitter" viewBox="0 0 32 32">
<title>twitter</title>
<path d="M24.325 3h4.411l-9.636 11.013 11.336 14.987h-8.876l-6.952-9.089-7.955 9.089h-4.413l10.307-11.78-10.875-14.22h9.101l6.284 8.308zM22.777 26.36h2.444l-15.776-20.859h-2.623z"></path>
</symbol>
<symbol id="icon-x" viewBox="0 0 32 32">
<path d="M24.325 3h4.411l-9.636 11.013 11.336 14.987h-8.876l-6.952-9.089-7.955 9.089h-4.413l10.307-11.78-10.875-14.22h9.101l6.284 8.308zM22.777 26.36h2.444l-15.776-20.859h-2.623z"></path>
</symbol>
<symbol id="icon-facebook" viewBox="0 0 16 28">
<title>facebook</title>
<path d="M14.984 0.187v4.125h-2.453c-1.922 0-2.281 0.922-2.281 2.25v2.953h4.578l-0.609 4.625h-3.969v11.859h-4.781v-11.859h-3.984v-4.625h3.984v-3.406c0-3.953 2.422-6.109 5.953-6.109 1.687 0 3.141 0.125 3.563 0.187z"></path>
</symbol>
<symbol id="icon-table2" viewBox="0 0 32 32">
<title>table2</title>
<path d="M0 2v28h32v-28h-32zM12 20v-6h8v6h-8zM20 22v6h-8v-6h8zM20 6v6h-8v-6h8zM10 6v6h-8v-6h8zM2 14h8v6h-8v-6zM22 14h8v6h-8v-6zM22 12v-6h8v6h-8zM2 22h8v6h-8v-6zM22 28v-6h8v6h-8z"></path>
</symbol>
<symbol id="icon-cropped-logo-full" viewBox="0 0 72 32">
<path fill="#fff" style="fill: var(--color1, #fff)" d="M63.6 5.6c4.515-0.158 4.515-0.158 6 0.8 0.425 0.7 0.425 0.7 0.4 1.6-0.9 1.979-1.98 2.619-3.844 3.694-1.438 1.031-2.059 1.554-2.533 3.276-0.103 1.626-0.095 3.204-0.023 4.83 0.18 7.637 0.18 7.637-2.1 10.55-2.093 1.618-4.505 1.962-7.1 1.65-2.43-0.535-3.81-1.473-5.2-3.6-0.819-2.267-0.907-4.287-0.878-6.661 0.001-0.36 0.002-0.72 0.003-1.091 0.004-1.141 0.014-2.282 0.025-3.423 0.004-0.777 0.008-1.555 0.011-2.332 0.009-1.898 0.023-3.795 0.039-5.693 2.149-0.792 4.079-1.136 6.4-1.6 0.132 6.072 0.264 12.144 0.4 18.4 0.594 0.198 0.594 0.198 1.2 0.4 0.634-0.634 0.466-1.292 0.482-2.171 0.008-0.376 0.016-0.753 0.024-1.14 0.007-0.409 0.013-0.818 0.020-1.24 0.008-0.417 0.017-0.833 0.025-1.263 0.026-1.337 0.050-2.674 0.073-4.011 0.017-0.904 0.035-1.808 0.052-2.712 0.043-2.221 0.084-4.442 0.123-6.663 0.566-0.134 1.132-0.266 1.698-0.397 0.315-0.074 0.631-0.147 0.955-0.223 1.278-0.243 2.449-0.235 3.746-0.18 0-0.264 0-0.528 0-0.8zM63.6 6.4c0 1.848 0 3.696 0 5.6 3.155-1.33 3.155-1.33 5.6-3.6-0.076-0.887-0.166-1.366-0.8-2-0.808-0.029-1.617-0.034-2.425-0.025-1.176 0.012-1.176 0.012-2.375 0.025z"></path>
<path fill="#fff" style="fill: var(--color1, #fff)" d="M4.8 0.4c1.058-0.011 2.117-0.019 3.175-0.025 0.302-0.003 0.604-0.007 0.915-0.010 0.77-0.003 1.54 0.014 2.31 0.035 0.858 0.858 0.785 2.597 0.964 3.781 0.053 0.341 0.105 0.682 0.16 1.033 0.111 0.724 0.222 1.447 0.332 2.171 0.168 1.105 0.339 2.209 0.511 3.313 0.108 0.703 0.215 1.405 0.323 2.108 0.051 0.33 0.102 0.659 0.155 0.999 0.233 1.546 0.42 3.026 0.356 4.595-0.264 0.125-0.528 0.25-0.8 0.378-1.209 0.573-2.417 1.147-3.625 1.721-0.623 0.295-0.623 0.295-1.259 0.595-1.753 0.835-3.49 1.664-5.165 2.648-1.152 0.656-1.152 0.656-1.952 0.656 0.227-4.303 0.933-8.536 1.605-12.787 0.197-1.248 0.391-2.496 0.585-3.744 0.124-0.795 0.249-1.589 0.373-2.384 0.058-0.372 0.116-0.745 0.176-1.129 0.082-0.517 0.082-0.517 0.166-1.045 0.048-0.303 0.095-0.605 0.144-0.917 0.152-0.795 0.152-0.795 0.552-1.995zM7.6 10c-0.264 3.3-0.528 6.6-0.8 10 0.66 0 1.32 0 2 0 0.109-4.62 0.109-4.62-0.4-9.2-0.264-0.264-0.528-0.528-0.8-0.8z"></path>
<path fill="#fff" style="fill: var(--color1, #fff)" d="M40.4 12c2.948 2.067 4.865 4.596 6 8 0.060 1.114 0.092 2.211 0.1 3.325 0.008 0.299 0.017 0.598 0.025 0.905 0.018 2.516-0.607 4.115-2.25 6.070-1.778 1.489-3.521 1.896-5.841 1.825-2.103-0.315-3.609-1.232-4.984-2.825-1.006-2.012-1.45-3.828-1.45-6.1 0.85-0.201 1.7-0.401 2.55-0.6 0.71-0.167 0.71-0.167 1.434-0.337 1.216-0.262 1.216-0.262 2.016-0.262 0.264 1.452 0.528 2.904 0.8 4.4 0.396 0 0.792 0 1.2 0 0.044-0.749 0.074-1.5 0.1-2.25 0.019-0.418 0.037-0.835 0.056-1.266-0.347-2.856-2.632-4.631-4.635-6.497-1.041-1-1.772-1.713-1.921-3.188 0.832-0.28 1.665-0.554 2.5-0.825 0.464-0.153 0.928-0.306 1.406-0.464 1.762-0.423 1.762-0.423 2.894 0.089z"></path>
<path fill="#fff" style="fill: var(--color1, #fff)" d="M19.184 0.355c0.517 0.002 1.035 0.004 1.568 0.006 0.412 0.001 0.412 0.001 0.832 0.002 0.88 0.002 1.761 0.007 2.641 0.012 0.596 0.002 1.191 0.004 1.787 0.005 1.463 0.004 2.925 0.012 4.388 0.020 0 1.848 0 3.696 0 5.6-2.112 0-4.224 0-6.4 0 0 2.112 0 4.224 0 6.4 1.32 0 2.64 0 4 0-0.911 0.911-1.57 1.143-2.775 1.578-0.391 0.142-0.782 0.284-1.184 0.43-0.409 0.146-0.819 0.292-1.241 0.442-0.409 0.149-0.819 0.298-1.241 0.452-3.050 1.098-3.050 1.098-3.959 1.098-0.010-2.214-0.017-4.429-0.022-6.643-0.002-0.754-0.005-1.508-0.008-2.262-0.005-1.081-0.007-2.162-0.009-3.244-0.002-0.339-0.004-0.678-0.006-1.028-0-0.808 0.020-1.616 0.045-2.424 0.4-0.4 0.4-0.4 1.584-0.445z"></path>
<path fill="#fff" style="fill: var(--color1, #fff)" d="M28.8 15.2c0 0.924 0 1.848 0 2.8-1.584 0-3.168 0-4.8 0 0 2.64 0 5.28 0 8 2.244 0 4.488 0 6.8 0 0.039 4.023 0.039 4.023 0 5.2-0.763 0.763-2.126 0.452-3.137 0.453-0.274 0-0.547 0.001-0.829 0.001-0.58 0-1.159-0-1.739-0.002-0.89-0.002-1.78-0-2.671 0.003-0.562-0-1.124-0.001-1.686-0.002-0.515-0-1.030-0.001-1.56-0.001-1.177-0.052-1.177-0.052-1.577-0.452-0.035-0.858-0.043-1.718-0.039-2.577 0.001-0.522 0.003-1.044 0.004-1.582 0.003-0.555 0.007-1.111 0.010-1.666 0.002-0.557 0.004-1.114 0.005-1.671 0.005-1.368 0.011-2.736 0.020-4.104 2.357-1.207 4.712-2.352 7.175-3.325 0.258-0.105 0.516-0.211 0.782-0.32 1.146-0.457 1.997-0.755 3.243-0.755z"></path>
<path fill="#fff" style="fill: var(--color1, #fff)" d="M42.55 0.475c2.495 1.723 3.184 3.873 3.85 6.725 0 0.264 0 0.528 0 0.8-0.924 0.211-1.849 0.419-2.775 0.625-0.264 0.061-0.528 0.121-0.799 0.184-0.672 0.148-1.349 0.272-2.026 0.391-0.633-0.633-0.539-1.352-0.625-2.225-0.050-0.496-0.050-0.496-0.102-1.002-0.024-0.255-0.048-0.51-0.073-0.773-0.528 0.132-1.056 0.264-1.6 0.4 0 1.32 0 2.64 0 4-0.85 0.268-1.7 0.534-2.55 0.8-0.473 0.149-0.947 0.297-1.434 0.45-1.216 0.35-1.216 0.35-2.016 0.35-0.574-3.1-0.38-5.771 1.15-8.575 2.369-2.856 5.542-3.367 9-2.15z"></path>
<path fill="#fff" style="fill: var(--color1, #fff)" d="M14.8 21.6c0.202 1.291 0.402 2.583 0.6 3.875 0.057 0.365 0.114 0.73 0.173 1.105 0.081 0.532 0.081 0.532 0.164 1.074 0.050 0.325 0.101 0.649 0.152 0.984 0.114 0.996 0.129 1.96 0.11 2.961-0.925 0.011-1.85 0.019-2.775 0.025-0.515 0.005-1.030 0.009-1.561 0.014-1.264-0.039-1.264-0.039-1.664-0.439-0.094-0.94-0.166-1.882-0.225-2.825-0.034-0.516-0.067-1.032-0.102-1.564-0.024-0.4-0.048-0.799-0.073-1.211-1.056 0-2.112 0-3.2 0 0.005 0.266 0.009 0.531 0.014 0.805 0.004 0.353 0.007 0.706 0.011 1.070 0.005 0.348 0.009 0.696 0.014 1.055-0.039 1.070-0.039 1.070-0.439 3.070-1.98 0-3.96 0-6 0 0.4-2.8 0.4-2.8 1.011-3.471 0.261-0.149 0.523-0.299 0.792-0.452 0.293-0.173 0.586-0.347 0.888-0.525 0.316-0.174 0.633-0.347 0.959-0.526 0.322-0.186 0.644-0.371 0.975-0.562 0.986-0.564 1.98-1.114 2.975-1.663 0.59-0.336 1.18-0.671 1.77-1.008 0.534-0.298 1.069-0.596 1.605-0.892 0.248-0.139 0.496-0.278 0.751-0.421 1.733-0.926 1.733-0.926 3.074-0.479z"></path>
<path fill="#fff" style="fill: var(--color1, #fff)" d="M48.4 0.4c2.112 0 4.224 0 6.4 0 0 1.98 0 3.96 0 6-2.112 0.264-4.224 0.528-6.4 0.8 0-2.244 0-4.488 0-6.8z"></path>
<path fill="#fff" style="fill: var(--color1, #fff)" d="M58.952 0.361c0.558 0.003 1.116 0.007 1.673 0.014 0.284 0.002 0.569 0.004 0.862 0.005 0.704 0.005 1.409 0.012 2.113 0.020 0 1.716 0 3.432 0 5.2-0.992 0.078-1.983 0.152-2.975 0.225-0.424 0.034-0.424 0.034-0.857 0.068-0.722 0.052-1.445 0.081-2.168 0.107-0.4-0.4-0.4-0.4-0.453-1.475 0.001-0.437 0.002-0.875 0.003-1.325-0.001-0.437-0.002-0.875-0.003-1.325 0.079-1.598 0.162-1.467 1.805-1.514z"></path>
</symbol>
<symbol id="icon-web-icons_login" viewBox="0 0 32 32">
<path fill="#fff" style="fill: var(--color1, #fff)" d="M24.672 0h-17.344c-4.048 0-7.328 3.28-7.328 7.328v17.328c0 4.048 3.28 7.328 7.328 7.328h17.328c4.048 0 7.328-3.28 7.328-7.328v-17.328c0-4.048-3.28-7.328-7.328-7.328zM28 24.672c0 1.84-1.488 3.328-3.328 3.328h-0.672v-1.328c0-4.416-3.584-8-8-8s-8 3.584-8 8v1.328h-0.672c-1.84 0-3.328-1.488-3.328-3.328v-17.344c0-1.84 1.488-3.328 3.328-3.328h17.328c1.84 0 3.328 1.488 3.328 3.328v17.328z"></path>
<path fill="#fff" style="fill: var(--color1, #fff)" d="M20.672 11.328c0 2.58-2.092 4.672-4.672 4.672s-4.672-2.092-4.672-4.672c0-2.58 2.092-4.672 4.672-4.672s4.672 2.092 4.672 4.672z"></path>
</symbol>
<symbol id="icon-web-icons_bottom-white" viewBox="0 0 32 32">
<path fill="none" stroke="#fff" style="stroke: var(--color1, #fff)" stroke-linejoin="miter" stroke-linecap="butt" stroke-miterlimit="10" stroke-width="1.2308" d="M31.385 16c0 8.497-6.888 15.385-15.385 15.385s-15.385-6.888-15.385-15.385c0-8.497 6.888-15.385 15.385-15.385s15.385 6.888 15.385 15.385z"></path>
<path fill="none" stroke="#fff" style="stroke: var(--color1, #fff)" stroke-linejoin="miter" stroke-linecap="butt" stroke-miterlimit="10" stroke-width="1.2308" d="M20.812 11.545l-4.812 10.142-4.812-10.142"></path>
</symbol>
<symbol id="icon-web-icons_contact" viewBox="0 0 32 32">
<path fill="#fff" style="fill: var(--color1, #fff)" d="M24.8 7.104h-17.6c-0.448 0-0.8 0.4-0.8 0.896s0.352 0.896 0.8 0.896h17.6c0.448 0 0.8-0.4 0.8-0.896s-0.352-0.896-0.8-0.896z"></path>
<path fill="#fff" style="fill: var(--color1, #fff)" d="M24.8 12.448h-17.6c-0.448 0-0.8 0.4-0.8 0.896s0.352 0.896 0.8 0.896h17.6c0.448 0 0.8-0.4 0.8-0.896s-0.352-0.896-0.8-0.896z"></path>
<path fill="#fff" style="fill: var(--color1, #fff)" d="M24.8 17.776h-17.6c-0.448 0-0.8 0.4-0.8 0.896s0.352 0.896 0.8 0.896h17.6c0.448 0 0.8-0.4 0.8-0.896s-0.352-0.896-0.8-0.896z"></path>
<path fill="#fff" style="fill: var(--color1, #fff)" d="M28 0h-24c-2.208 0-4 2-4 4.448v17.776c0 2.448 1.792 4.448 4 4.448h4v4.448c0 0.32 0.144 0.608 0.384 0.768 0.128 0.080 0.272 0.128 0.416 0.128 0.128 0 0.256-0.032 0.384-0.112 0 0 7.376-4.464 8.624-5.216h10.192c2.208 0 4-2 4-4.448v-17.792c0-2.448-1.792-4.448-4-4.448zM30.4 22.224c0 1.472-1.072 2.672-2.4 2.672h-10.4q-0.192 0-8 4.72v-3.84c0-0.496-0.352-0.896-0.8-0.896h-4.8c-1.328 0-2.4-1.2-2.4-2.672v-17.76c0-1.472 1.072-2.672 2.4-2.672h24c1.328 0 2.4 1.2 2.4 2.672v17.776z"></path>
</symbol>
</defs>
</svg>
