<?xml version="1.0" encoding="UTF-8"?>
<svg id="Layer_1" xmlns="http://www.w3.org/2000/svg" version="1.1" viewBox="0 0 278.5 404.5">
  <!-- Generator: Adobe Illustrator 30.2.1, SVG Export Plug-In . SVG Version: 2.1.1 Build 1)  -->
  <defs>
    <style>
      .st0 {
        fill: #8acccb;
      }

      .st1 {
        fill: #2c768e;
      }

      .st2 {
        fill: #fff;
      }
    </style>
  </defs>
  <circle class="st2" cx="139.2" cy="138.2" r="61.4"/>
  <g>
    <path class="st1" d="M139.2,403.5c-5.4,0-38.7-43.4-73.7-103.3C46.1,267,1,184.9,1,139.2,1,63,63,1,139.2,1s138.2,62,138.3,138.2c0,45.7-45.1,127.8-64.5,160.9-15.3,26.2-32.5,52.9-47.2,73.1-16.2,22.3-24.4,30.2-26.5,30.2ZM139.2,75.8c-34.4,0-62.4,28-62.4,62.4s28,62.4,62.4,62.4,62.4-28,62.4-62.4-28-62.4-62.4-62.4Z"/>
    <path class="st0" d="M139.2,2c36.7,0,71.1,14.3,97,40.2,25.9,25.9,40.2,60.4,40.2,97.1,0,17.4-6.6,41.8-19.5,72.6-10.8,25.7-26.1,55.7-44.2,86.8-15.4,26.4-32.1,52.4-47,73-17,23.5-24.6,30.5-26.5,30.9-1.9-.4-9.5-7.3-26.5-30.9-14.9-20.6-31.6-46.5-47-73-18.1-31.1-33.4-61.1-44.2-86.8C8.6,181,2,156.6,2,139.2c0-36.7,14.3-71.1,40.2-97.1C68.1,16.3,102.6,2,139.2,2M139.2,201.7c35,0,63.4-28.5,63.4-63.4s-28.5-63.4-63.4-63.4-63.4,28.5-63.4,63.4,28.5,63.4,63.4,63.4M139.2,0C62.3,0,0,62.3,0,139.2c0,76.9,126,265.2,139.2,265.2s139.3-188.3,139.3-265.2c0-76.9-62.4-139.2-139.3-139.2h0ZM139.2,199.7c-33.9,0-61.4-27.5-61.4-61.4s27.5-61.4,61.4-61.4,61.4,27.5,61.4,61.4-27.5,61.4-61.4,61.4h0Z"/>
  </g>
</svg>